<svg version="1.1" id="Layer_1" xmlns="http://www.w3.org/2000/svg" xmlns:xlink="http://www.w3.org/1999/xlink" x="0px" y="0px"
	 width="100%" viewBox="0 0 1440 1440" enable-background="new 0 0 1440 1440" xml:space="preserve">
<path fill="#000000" opacity="1.000000" stroke="none" 
	d="
M798.000000,1441.000000 
	C532.000061,1441.000000 266.500092,1441.000000 1.000107,1441.000000 
	C1.000071,961.000122 1.000071,481.000275 1.000036,1.000300 
	C480.999786,1.000200 960.999573,1.000200 1440.999512,1.000100 
	C1440.999756,480.999725 1440.999756,960.999451 1440.999878,1440.999512 
	C1226.833374,1441.000000 1012.666687,1441.000000 798.000000,1441.000000 
M1070.812988,695.772156 
	C1070.814453,688.281067 1070.816772,680.790039 1070.817261,673.298950 
	C1070.818237,658.150391 1070.886963,643.001099 1070.717285,627.854492 
	C1070.699341,626.262146 1069.444336,623.453857 1068.470947,623.319031 
	C1064.642822,622.788574 1060.697510,623.101807 1056.718262,623.101807 
	C1056.718262,637.620117 1056.782837,651.094727 1056.638184,664.567078 
	C1056.619751,666.287415 1055.511230,667.996033 1054.907837,669.710083 
	C1053.636719,668.552185 1052.030029,667.605530 1051.147217,666.203186 
	C1043.628906,654.261353 1035.865356,642.447632 1028.980469,630.144958 
	C1025.712402,624.305115 1021.839355,622.246521 1015.436157,622.868286 
	C1011.803284,623.221069 1010.578491,624.239319 1010.607178,627.950806 
	C1010.771851,649.257446 1010.718140,670.565796 1010.718201,691.873596 
	C1010.718201,701.433655 1010.693481,701.334412 1020.333008,701.015198 
	C1023.449951,700.912109 1024.705933,700.045166 1024.645752,696.660461 
	C1024.444214,685.344299 1024.474487,674.020813 1024.645264,662.703613 
	C1024.684692,660.087646 1025.635498,657.485413 1026.166870,654.876892 
	C1028.187256,656.774048 1030.702759,658.355835 1032.145386,660.620911 
	C1039.915039,672.819275 1047.405029,685.195496 1055.022339,697.491272 
	C1057.023804,700.721924 1067.521362,702.598877 1070.218140,700.061340 
	C1070.907715,699.412476 1070.650024,697.756775 1070.812988,695.772156 
M692.248169,688.456421 
	C692.248535,687.290161 692.242432,686.123840 692.250305,684.957642 
	C692.338928,671.845215 690.880737,673.598572 704.178406,673.392517 
	C707.304138,673.344055 709.089661,674.549988 710.331543,677.332397 
	C713.248535,683.867798 716.263611,690.363281 719.432495,696.779419 
	C720.180176,698.293518 721.578186,700.408386 722.874023,700.559753 
	C727.030823,701.045227 731.279907,700.740234 736.391479,700.740234 
	C732.124390,691.800781 728.510925,683.968445 724.637756,676.266724 
	C723.380188,673.766052 723.690857,672.299683 725.587830,670.182129 
	C727.959290,667.534973 730.692383,664.350037 731.200439,661.076172 
	C732.234985,654.410583 732.695801,647.436707 731.930786,640.757263 
	C730.377380,627.195496 725.152222,623.067261 711.467896,623.000366 
	C702.471375,622.956360 693.469177,623.177917 684.479797,622.920837 
	C680.056213,622.794312 678.425232,623.936462 678.486755,628.769592 
	C678.764404,650.591553 678.614929,672.419067 678.597778,694.244568 
	C678.592529,700.939636 678.561218,700.939636 685.089966,700.966980 
	C692.341980,700.997375 692.339966,700.997375 692.263489,693.934753 
	C692.247314,692.435425 692.251282,690.935913 692.248169,688.456421 
M338.759216,680.497192 
	C338.749359,685.489990 339.030151,690.505615 338.641113,695.468689 
	C338.307983,699.718811 339.849365,701.100037 343.961670,701.020996 
	C354.110229,700.826111 364.266235,701.034912 374.415771,700.869324 
	C389.058929,700.630432 396.226166,694.659912 397.273621,680.111267 
	C398.140656,668.069153 398.034637,655.868774 397.214172,643.816467 
	C396.246735,629.605347 389.011322,623.377380 374.825409,623.104126 
	C364.510376,622.905396 354.188080,623.105774 343.871704,622.949646 
	C340.148987,622.893372 338.564392,623.917419 338.623077,628.072388 
	C338.865204,645.211182 338.747253,662.355042 338.759216,680.497192 
M954.525818,627.322632 
	C947.351685,651.493896 940.177490,675.665100 932.785400,700.570618 
	C936.155273,700.726807 938.615417,700.665588 941.023254,700.990967 
	C945.273132,701.565430 947.248718,699.807617 948.429993,695.682251 
	C951.871033,683.664429 952.036560,683.677307 965.006897,683.729797 
	C969.647583,683.748596 975.523438,682.306213 978.588196,684.571289 
	C981.801392,686.946289 982.247253,692.999329 984.057617,697.380859 
	C984.563171,698.604492 985.541199,700.475403 986.431946,700.552368 
	C990.424500,700.897583 994.463745,700.702698 998.803040,700.702698 
	C991.434448,675.558044 984.356445,651.458374 977.326172,627.344849 
	C976.475403,624.426880 974.979492,622.795227 971.673035,622.950928 
	C967.518738,623.146484 963.308533,622.676514 959.205444,623.175781 
	C957.598022,623.371399 956.215454,625.415405 954.525818,627.322632 
M821.865601,621.586304 
	C814.042480,621.483582 806.212646,621.137146 798.398132,621.350525 
	C791.340515,621.543152 785.689209,624.938721 783.282227,631.640747 
	C781.630249,636.240417 780.818359,641.398254 780.854065,646.297607 
	C780.945984,658.909973 785.074768,664.096008 795.886902,666.336548 
	C799.460571,667.077087 803.107422,667.666809 806.745483,667.859192 
	C822.868408,668.711548 820.072876,667.486389 820.288757,682.554688 
	C820.416870,691.495117 819.961304,692.181824 811.179810,691.899414 
	C801.590027,691.591003 792.023193,690.567871 782.181946,689.836670 
	C781.954590,690.509338 781.564392,691.415466 781.341980,692.360962 
	C779.563171,699.923889 779.565857,700.680054 787.064453,701.377869 
	C797.127563,702.314209 807.347717,702.838806 817.409241,702.169434 
	C828.184265,701.452576 833.924744,695.103882 835.094360,684.562561 
	C835.475403,681.128906 835.203796,677.565979 834.799927,674.112610 
	C833.596741,663.825684 829.090881,658.945129 818.816589,657.320984 
	C812.924622,656.389648 806.916870,656.098022 800.947266,655.783020 
	C797.018921,655.575684 795.243347,654.010376 795.494751,649.918518 
	C795.749634,645.769836 795.621033,641.593018 795.553101,637.430298 
	C795.492004,633.687439 797.203125,631.772095 800.970093,631.981689 
	C808.431641,632.396790 815.910278,632.681641 823.339050,633.439941 
	C827.554504,633.870300 829.605957,633.041443 830.418945,628.358215 
	C831.212646,623.785828 829.238525,622.743774 825.627502,622.294861 
	C824.643066,622.172485 823.680054,621.877502 821.865601,621.586304 
M519.562256,682.755005 
	C517.543213,685.604431 515.243347,688.298828 513.565247,691.336609 
	C510.348633,697.159424 512.618164,700.966125 519.042358,700.969482 
	C534.536072,700.977478 550.031067,700.859741 565.522705,701.036316 
	C569.544922,701.082153 571.067810,700.025635 571.097046,695.712769 
	C571.127441,691.224609 569.594116,689.985413 565.314758,690.106628 
	C555.992554,690.370605 546.657410,690.244568 537.328796,690.155151 
	C535.543884,690.138123 533.764404,689.557129 531.381226,689.128052 
	C537.140625,681.205627 542.304077,674.100830 547.469849,666.997742 
	C555.389343,656.108276 563.549011,645.380127 571.047791,634.208313 
	C572.730469,631.701416 572.475220,627.614441 572.211243,624.327209 
	C572.161194,623.704956 567.857239,623.065552 565.510925,623.045593 
	C551.517578,622.926208 537.522583,622.955627 523.528564,623.019836 
	C521.500183,623.029175 519.473999,623.493774 517.293762,623.766907 
	C517.698364,625.625916 518.228088,626.781250 518.143555,627.889893 
	C517.754089,633.000610 520.497314,633.923401 524.906250,633.756592 
	C532.059448,633.485901 539.233276,633.594849 546.393066,633.765503 
	C548.543945,633.816772 550.677185,634.605408 552.818542,635.056213 
	C551.865906,637.087097 551.204224,639.327820 549.914368,641.115356 
	C540.003357,654.850647 529.970520,668.497864 519.562256,682.755005 
M860.501099,622.986511 
	C853.926392,622.986511 847.351685,622.986511 840.610107,622.986511 
	C840.610107,625.270447 840.771912,626.453491 840.582092,627.577087 
	C839.761658,632.432007 841.755432,634.283752 846.586792,633.773926 
	C849.387512,633.478394 852.271973,633.955444 855.067261,633.635132 
	C860.230408,633.043457 861.541077,635.260986 861.474670,640.186829 
	C861.223083,658.833252 861.355591,677.485107 861.410461,696.134705 
	C861.414612,697.541565 861.784119,700.108215 862.242981,700.168762 
	C865.828125,700.641296 869.540649,701.038269 873.060669,700.484619 
	C873.932434,700.347534 874.723022,696.648621 874.737366,694.581238 
	C874.866821,675.932373 874.884949,657.281738 874.756592,638.632874 
	C874.731445,634.984436 875.936890,633.461426 879.638733,633.649048 
	C883.458679,633.842712 887.307922,633.500854 891.122803,633.739075 
	C895.197327,633.993591 895.653870,631.886902 895.566406,628.526672 
	C895.480286,625.216003 895.501343,622.788818 890.972046,622.911743 
	C881.154968,623.178040 871.325439,622.989380 860.501099,622.986511 
M921.040222,679.502014 
	C921.040222,661.050598 921.040222,642.599243 921.040222,622.998657 
	C917.779968,622.998657 914.369080,623.019531 910.958557,622.992554 
	C907.849609,622.967957 906.668213,624.239624 906.695251,627.558472 
	C906.868286,648.851501 906.843933,670.146179 906.844971,691.440369 
	C906.845459,701.506531 907.376221,701.971924 917.472595,700.975952 
	C920.384216,700.688660 921.446411,699.490662 921.270386,696.465759 
	C920.961487,691.158142 921.090454,685.824951 921.040222,679.502014 
M421.948608,622.980713 
	C417.513184,622.021606 416.185059,623.810181 416.226715,628.272949 
	C416.425507,649.577026 416.319031,670.883972 416.316956,692.189941 
	C416.316040,701.775208 416.307434,701.719177 426.108734,700.995300 
	C429.195068,700.767334 430.308746,699.632568 430.279877,696.317078 
	C430.088531,674.347351 430.101074,652.375549 430.135345,630.404541 
	C430.147034,622.909729 430.262970,622.909912 421.948608,622.980713 
M750.732117,695.023376 
	C750.651306,701.394897 755.203186,703.047485 764.144653,699.896423 
	C764.144653,674.525635 764.144653,649.154846 764.144653,622.996033 
	C761.252747,622.996033 758.626831,623.181030 756.037231,622.953369 
	C751.988281,622.597351 750.578186,623.970764 750.623047,628.277588 
	C750.851379,650.227600 750.738037,672.181030 750.732117,695.023376 
M633.274170,634.586731 
	C641.444336,630.929871 649.775085,633.713989 657.932556,634.418701 
	C662.642456,634.825562 663.635437,633.232727 664.396240,629.352051 
	C665.193420,625.286438 664.914124,622.154358 660.095886,621.797607 
	C652.817566,621.258850 645.509521,620.786255 638.217896,620.835632 
	C626.102051,620.917603 618.353394,627.445618 616.176636,639.189819 
	C613.389282,654.228088 613.244446,669.335815 616.141479,684.368103 
	C617.538574,691.617126 620.396912,698.597168 628.030579,701.036194 
	C639.686218,704.760254 651.713196,704.225220 663.434570,701.099976 
	C668.635742,699.713135 665.964355,694.917297 665.689819,691.663574 
	C665.423035,688.502869 663.153137,688.268799 660.103516,688.985229 
	C651.680359,690.964233 643.194580,692.553650 634.451965,690.301392 
	C631.385010,689.511353 630.484009,688.073120 630.504211,685.120422 
	C630.603394,670.627014 630.477295,656.131714 630.648132,641.639587 
	C630.673706,639.472046 631.850281,637.318115 633.274170,634.586731 
M499.606232,702.380981 
	C501.272644,702.369629 502.953156,702.492981 504.602600,702.319885 
	C508.469910,701.914124 509.447144,699.818726 508.266907,696.088745 
	C504.218079,683.292358 500.332886,670.443970 496.426208,657.602966 
	C493.141449,646.806152 490.022369,635.956726 486.534882,625.226440 
	C486.054138,623.747253 483.942108,621.915771 482.465179,621.801636 
	C477.165131,621.391968 471.799225,621.439087 466.491241,621.799927 
	C465.126129,621.892700 463.251831,623.513123 462.700531,624.873291 
	C461.025635,629.005371 459.805908,633.330688 458.547485,637.621399 
	C453.270905,655.612671 448.139648,673.647095 442.764832,691.608765 
	C439.543243,702.374512 439.590942,702.576233 451.139191,702.398926 
	C455.299316,702.335022 458.081909,700.957214 458.565979,696.244385 
	C458.851196,693.467590 459.557190,690.587830 460.790894,688.111633 
	C461.486542,686.715393 463.575073,685.322571 465.144318,685.187744 
	C469.101685,684.847900 473.128632,685.429932 477.112946,685.271484 
	C490.180725,684.752014 487.537109,684.436646 490.907379,696.361633 
	C492.246521,701.100037 494.231873,702.824951 499.606232,702.380981 
z"/>
<path fill="#E7E7E7" opacity="1.000000" stroke="none" 
	d="
M1070.820312,696.167908 
	C1070.650024,697.756775 1070.907715,699.412476 1070.218140,700.061340 
	C1067.521362,702.598877 1057.023804,700.721924 1055.022339,697.491272 
	C1047.405029,685.195496 1039.915039,672.819275 1032.145386,660.620911 
	C1030.702759,658.355835 1028.187256,656.774048 1026.166870,654.876892 
	C1025.635498,657.485413 1024.684692,660.087646 1024.645264,662.703613 
	C1024.474487,674.020813 1024.444214,685.344299 1024.645752,696.660461 
	C1024.705933,700.045166 1023.449951,700.912109 1020.333008,701.015198 
	C1010.693481,701.334412 1010.718201,701.433655 1010.718201,691.873596 
	C1010.718140,670.565796 1010.771851,649.257446 1010.607178,627.950806 
	C1010.578491,624.239319 1011.803284,623.221069 1015.436157,622.868286 
	C1021.839355,622.246521 1025.712402,624.305115 1028.980469,630.144958 
	C1035.865356,642.447632 1043.628906,654.261353 1051.147217,666.203186 
	C1052.030029,667.605530 1053.636719,668.552185 1054.907837,669.710083 
	C1055.511230,667.996033 1056.619751,666.287415 1056.638184,664.567078 
	C1056.782837,651.094727 1056.718262,637.620117 1056.718262,623.101807 
	C1060.697510,623.101807 1064.642822,622.788574 1068.470947,623.319031 
	C1069.444336,623.453857 1070.699341,626.262146 1070.717285,627.854492 
	C1070.886963,643.001099 1070.818237,658.150391 1070.817261,673.298950 
	C1070.816772,680.790039 1070.814453,688.281067 1070.820312,696.167908 
z"/>
<path fill="#E7E7E7" opacity="1.000000" stroke="none" 
	d="
M692.247070,688.946411 
	C692.251282,690.935913 692.247314,692.435425 692.263489,693.934753 
	C692.339966,700.997375 692.341980,700.997375 685.089966,700.966980 
	C678.561218,700.939636 678.592529,700.939636 678.597778,694.244568 
	C678.614929,672.419067 678.764404,650.591553 678.486755,628.769592 
	C678.425232,623.936462 680.056213,622.794312 684.479797,622.920837 
	C693.469177,623.177917 702.471375,622.956360 711.467896,623.000366 
	C725.152222,623.067261 730.377380,627.195496 731.930786,640.757263 
	C732.695801,647.436707 732.234985,654.410583 731.200439,661.076172 
	C730.692383,664.350037 727.959290,667.534973 725.587830,670.182129 
	C723.690857,672.299683 723.380188,673.766052 724.637756,676.266724 
	C728.510925,683.968445 732.124390,691.800781 736.391479,700.740234 
	C731.279907,700.740234 727.030823,701.045227 722.874023,700.559753 
	C721.578186,700.408386 720.180176,698.293518 719.432495,696.779419 
	C716.263611,690.363281 713.248535,683.867798 710.331543,677.332397 
	C709.089661,674.549988 707.304138,673.344055 704.178406,673.392517 
	C690.880737,673.598572 692.338928,671.845215 692.250305,684.957642 
	C692.242432,686.123840 692.248535,687.290161 692.247070,688.946411 
M696.773743,663.105042 
	C701.603577,663.098755 706.434326,663.151978 711.262939,663.071167 
	C717.266541,662.970642 718.359375,661.943604 718.455994,656.129761 
	C718.541687,650.968872 718.262512,645.798340 718.457031,640.643921 
	C718.647461,635.597778 715.935181,633.730713 711.461548,633.620850 
	C706.301392,633.494141 701.136169,633.588257 695.974548,633.502869 
	C693.356201,633.459595 691.908203,634.354797 691.934448,637.234680 
	C692.001160,644.561951 691.979919,651.890747 691.914062,659.218201 
	C691.889343,661.963318 693.122925,663.224854 696.773743,663.105042 
z"/>
<path fill="#E7E7E7" opacity="1.000000" stroke="none" 
	d="
M338.760437,679.997131 
	C338.747253,662.355042 338.865204,645.211182 338.623077,628.072388 
	C338.564392,623.917419 340.148987,622.893372 343.871704,622.949646 
	C354.188080,623.105774 364.510376,622.905396 374.825409,623.104126 
	C389.011322,623.377380 396.246735,629.605347 397.214172,643.816467 
	C398.034637,655.868774 398.140656,668.069153 397.273621,680.111267 
	C396.226166,694.659912 389.058929,700.630432 374.415771,700.869324 
	C364.266235,701.034912 354.110229,700.826111 343.961670,701.020996 
	C339.849365,701.100037 338.307983,699.718811 338.641113,695.468689 
	C339.030151,690.505615 338.749359,685.489990 338.760437,679.997131 
M383.880188,643.919189 
	C383.442108,635.623169 381.489532,633.681152 373.297211,633.580078 
	C367.639740,633.510254 361.980743,633.569763 356.322876,633.520752 
	C353.493652,633.496277 352.077637,634.559753 352.091644,637.646545 
	C352.164856,653.788757 352.181091,669.932129 352.043945,686.073608 
	C352.014679,689.515503 353.605286,690.380432 356.589294,690.334595 
	C361.580597,690.257874 366.573944,690.324341 371.566406,690.311829 
	C382.202087,690.285095 383.864563,688.675903 383.883392,678.286987 
	C383.903595,667.137085 383.883545,655.987000 383.880188,643.919189 
z"/>
<path fill="#E7E7E7" opacity="1.000000" stroke="none" 
	d="
M954.628174,626.970093 
	C956.215454,625.415405 957.598022,623.371399 959.205444,623.175781 
	C963.308533,622.676514 967.518738,623.146484 971.673035,622.950928 
	C974.979492,622.795227 976.475403,624.426880 977.326172,627.344849 
	C984.356445,651.458374 991.434448,675.558044 998.803040,700.702698 
	C994.463745,700.702698 990.424500,700.897583 986.431946,700.552368 
	C985.541199,700.475403 984.563171,698.604492 984.057617,697.380859 
	C982.247253,692.999329 981.801392,686.946289 978.588196,684.571289 
	C975.523438,682.306213 969.647583,683.748596 965.006897,683.729797 
	C952.036560,683.677307 951.871033,683.664429 948.429993,695.682251 
	C947.248718,699.807617 945.273132,701.565430 941.023254,700.990967 
	C938.615417,700.665588 936.155273,700.726807 932.785400,700.570618 
	C940.177490,675.665100 947.351685,651.493896 954.628174,626.970093 
M973.331055,660.046997 
	C971.119263,652.629211 968.907471,645.211365 966.695740,637.793579 
	C966.038452,637.881531 965.381226,637.969421 964.723999,638.057373 
	C961.426086,649.374878 958.128113,660.692383 954.696716,672.467651 
	C962.569092,672.467651 969.487183,672.467651 976.902649,672.467651 
	C975.648987,668.072021 974.613708,664.442078 973.331055,660.046997 
z"/>
<path fill="#E7E7E7" opacity="1.000000" stroke="none" 
	d="
M822.286377,621.624023 
	C823.680054,621.877502 824.643066,622.172485 825.627502,622.294861 
	C829.238525,622.743774 831.212646,623.785828 830.418945,628.358215 
	C829.605957,633.041443 827.554504,633.870300 823.339050,633.439941 
	C815.910278,632.681641 808.431641,632.396790 800.970093,631.981689 
	C797.203125,631.772095 795.492004,633.687439 795.553101,637.430298 
	C795.621033,641.593018 795.749634,645.769836 795.494751,649.918518 
	C795.243347,654.010376 797.018921,655.575684 800.947266,655.783020 
	C806.916870,656.098022 812.924622,656.389648 818.816589,657.320984 
	C829.090881,658.945129 833.596741,663.825684 834.799927,674.112610 
	C835.203796,677.565979 835.475403,681.128906 835.094360,684.562561 
	C833.924744,695.103882 828.184265,701.452576 817.409241,702.169434 
	C807.347717,702.838806 797.127563,702.314209 787.064453,701.377869 
	C779.565857,700.680054 779.563171,699.923889 781.341980,692.360962 
	C781.564392,691.415466 781.954590,690.509338 782.181946,689.836670 
	C792.023193,690.567871 801.590027,691.591003 811.179810,691.899414 
	C819.961304,692.181824 820.416870,691.495117 820.288757,682.554688 
	C820.072876,667.486389 822.868408,668.711548 806.745483,667.859192 
	C803.107422,667.666809 799.460571,667.077087 795.886902,666.336548 
	C785.074768,664.096008 780.945984,658.909973 780.854065,646.297607 
	C780.818359,641.398254 781.630249,636.240417 783.282227,631.640747 
	C785.689209,624.938721 791.340515,621.543152 798.398132,621.350525 
	C806.212646,621.137146 814.042480,621.483582 822.286377,621.624023 
z"/>
<path fill="#E7E7E7" opacity="1.000000" stroke="none" 
	d="
M519.768860,682.463745 
	C529.970520,668.497864 540.003357,654.850647 549.914368,641.115356 
	C551.204224,639.327820 551.865906,637.087097 552.818542,635.056213 
	C550.677185,634.605408 548.543945,633.816772 546.393066,633.765503 
	C539.233276,633.594849 532.059448,633.485901 524.906250,633.756592 
	C520.497314,633.923401 517.754089,633.000610 518.143555,627.889893 
	C518.228088,626.781250 517.698364,625.625916 517.293762,623.766907 
	C519.473999,623.493774 521.500183,623.029175 523.528564,623.019836 
	C537.522583,622.955627 551.517578,622.926208 565.510925,623.045593 
	C567.857239,623.065552 572.161194,623.704956 572.211243,624.327209 
	C572.475220,627.614441 572.730469,631.701416 571.047791,634.208313 
	C563.549011,645.380127 555.389343,656.108276 547.469849,666.997742 
	C542.304077,674.100830 537.140625,681.205627 531.381226,689.128052 
	C533.764404,689.557129 535.543884,690.138123 537.328796,690.155151 
	C546.657410,690.244568 555.992554,690.370605 565.314758,690.106628 
	C569.594116,689.985413 571.127441,691.224609 571.097046,695.712769 
	C571.067810,700.025635 569.544922,701.082153 565.522705,701.036316 
	C550.031067,700.859741 534.536072,700.977478 519.042358,700.969482 
	C512.618164,700.966125 510.348633,697.159424 513.565247,691.336609 
	C515.243347,688.298828 517.543213,685.604431 519.768860,682.463745 
z"/>
<path fill="#E7E7E7" opacity="1.000000" stroke="none" 
	d="
M861.001099,622.986633 
	C871.325439,622.989380 881.154968,623.178040 890.972046,622.911743 
	C895.501343,622.788818 895.480286,625.216003 895.566406,628.526672 
	C895.653870,631.886902 895.197327,633.993591 891.122803,633.739075 
	C887.307922,633.500854 883.458679,633.842712 879.638733,633.649048 
	C875.936890,633.461426 874.731445,634.984436 874.756592,638.632874 
	C874.884949,657.281738 874.866821,675.932373 874.737366,694.581238 
	C874.723022,696.648621 873.932434,700.347534 873.060669,700.484619 
	C869.540649,701.038269 865.828125,700.641296 862.242981,700.168762 
	C861.784119,700.108215 861.414612,697.541565 861.410461,696.134705 
	C861.355591,677.485107 861.223083,658.833252 861.474670,640.186829 
	C861.541077,635.260986 860.230408,633.043457 855.067261,633.635132 
	C852.271973,633.955444 849.387512,633.478394 846.586792,633.773926 
	C841.755432,634.283752 839.761658,632.432007 840.582092,627.577087 
	C840.771912,626.453491 840.610107,625.270447 840.610107,622.986511 
	C847.351685,622.986511 853.926392,622.986511 861.001099,622.986633 
z"/>
<path fill="#E7E7E7" opacity="1.000000" stroke="none" 
	d="
M921.038147,680.002258 
	C921.090454,685.824951 920.961487,691.158142 921.270386,696.465759 
	C921.446411,699.490662 920.384216,700.688660 917.472595,700.975952 
	C907.376221,701.971924 906.845459,701.506531 906.844971,691.440369 
	C906.843933,670.146179 906.868286,648.851501 906.695251,627.558472 
	C906.668213,624.239624 907.849609,622.967957 910.958557,622.992554 
	C914.369080,623.019531 917.779968,622.998657 921.040222,622.998657 
	C921.040222,642.599243 921.040222,661.050598 921.038147,680.002258 
z"/>
<path fill="#E7E7E7" opacity="1.000000" stroke="none" 
	d="
M422.330811,622.981750 
	C430.262970,622.909912 430.147034,622.909729 430.135345,630.404541 
	C430.101074,652.375549 430.088531,674.347351 430.279877,696.317078 
	C430.308746,699.632568 429.195068,700.767334 426.108734,700.995300 
	C416.307434,701.719177 416.316040,701.775208 416.316956,692.189941 
	C416.319031,670.883972 416.425507,649.577026 416.226715,628.272949 
	C416.185059,623.810181 417.513184,622.021606 422.330811,622.981750 
z"/>
<path fill="#E7E7E7" opacity="1.000000" stroke="none" 
	d="
M750.738159,694.578369 
	C750.738037,672.181030 750.851379,650.227600 750.623047,628.277588 
	C750.578186,623.970764 751.988281,622.597351 756.037231,622.953369 
	C758.626831,623.181030 761.252747,622.996033 764.144653,622.996033 
	C764.144653,649.154846 764.144653,674.525635 764.150635,699.896851 
	C755.203186,703.047485 750.651306,701.394897 750.738159,694.578369 
z"/>
<path fill="#A0A0A0" opacity="1.000000" stroke="none" 
	d="
M632.884277,634.872314 
	C631.850281,637.318115 630.673706,639.472046 630.648132,641.639587 
	C630.477295,656.131714 630.603394,670.627014 630.504211,685.120422 
	C630.484009,688.073120 631.385010,689.511353 634.451965,690.301392 
	C643.194580,692.553650 651.680359,690.964233 660.103516,688.985229 
	C663.153137,688.268799 665.423035,688.502869 665.689819,691.663574 
	C665.964355,694.917297 668.635742,699.713135 663.434570,701.099976 
	C651.713196,704.225220 639.686218,704.760254 628.030579,701.036194 
	C620.396912,698.597168 617.538574,691.617126 616.141479,684.368103 
	C613.244446,669.335815 613.389282,654.228088 616.176636,639.189819 
	C618.353394,627.445618 626.102051,620.917603 638.217896,620.835632 
	C645.509521,620.786255 652.817566,621.258850 660.095886,621.797607 
	C664.914124,622.154358 665.193420,625.286438 664.396240,629.352051 
	C663.635437,633.232727 662.642456,634.825562 657.932556,634.418701 
	C649.775085,633.713989 641.444336,630.929871 632.884277,634.872314 
M635.381409,693.194092 
	C632.185059,692.206726 627.616211,692.542480 627.586670,687.754761 
	C627.490051,672.114929 627.661987,656.471130 627.928040,640.832214 
	C628.079651,631.915710 633.613953,630.538940 639.706055,630.579102 
	C645.485291,630.617126 651.276123,631.481018 657.027161,632.243286 
	C660.392090,632.689270 661.261353,631.035339 661.923706,628.196228 
	C662.674255,624.979553 660.793152,624.199707 658.534668,624.038940 
	C651.427063,623.532898 644.234131,622.478760 637.200317,623.089233 
	C626.679688,624.002197 620.522095,629.844604 618.858582,639.233215 
	C616.169128,654.412292 615.859131,669.705444 618.851257,684.835388 
	C620.279175,692.055908 624.039551,698.125000 632.171204,700.002502 
	C641.424438,702.138916 650.574768,701.882202 659.808044,699.741760 
	C663.466309,698.893677 664.191040,696.569092 663.041382,693.959106 
	C662.512146,692.757568 659.739197,691.916077 658.020508,691.975647 
	C650.745972,692.227722 643.485229,692.879761 635.381409,693.194092 
z"/>
<path fill="#616161" opacity="1.000000" stroke="none" 
	d="
M499.174377,702.379883 
	C494.231873,702.824951 492.246521,701.100037 490.907379,696.361633 
	C487.537109,684.436646 490.180725,684.752014 477.112946,685.271484 
	C473.128632,685.429932 469.101685,684.847900 465.144318,685.187744 
	C463.575073,685.322571 461.486542,686.715393 460.790894,688.111633 
	C459.557190,690.587830 458.851196,693.467590 458.565979,696.244385 
	C458.081909,700.957214 455.299316,702.335022 451.139191,702.398926 
	C439.590942,702.576233 439.543243,702.374512 442.764832,691.608765 
	C448.139648,673.647095 453.270905,655.612671 458.547485,637.621399 
	C459.805908,633.330688 461.025635,629.005371 462.700531,624.873291 
	C463.251831,623.513123 465.126129,621.892700 466.491241,621.799927 
	C471.799225,621.439087 477.165131,621.391968 482.465179,621.801636 
	C483.942108,621.915771 486.054138,623.747253 486.534882,625.226440 
	C490.022369,635.956726 493.141449,646.806152 496.426208,657.602966 
	C500.332886,670.443970 504.218079,683.292358 508.266907,696.088745 
	C509.447144,699.818726 508.469910,701.914124 504.602600,702.319885 
	C502.953156,702.492981 501.272644,702.369629 499.174377,702.379883 
M505.827576,698.708923 
	C499.755402,677.955505 493.703430,657.196167 487.603790,636.450806 
	C483.681091,623.109558 483.652405,623.201355 469.815521,623.665955 
	C466.448425,623.779053 464.800476,625.051697 463.853088,628.300049 
	C457.283386,650.825378 450.540924,673.300232 443.928223,695.813171 
	C443.594208,696.950378 443.444305,698.706177 444.069550,699.458496 
	C446.270386,702.106750 454.544708,699.826599 455.680695,696.423096 
	C460.160858,683.000061 460.160919,683.000061 474.491150,682.999512 
	C489.010040,682.998962 488.948364,683.020691 493.748260,696.648193 
	C494.242920,698.052612 495.921661,699.823181 497.235229,699.992249 
	C499.934814,700.339722 502.759216,699.717224 505.827576,698.708923 
z"/>
<path fill="#0C0C0C" opacity="1.000000" stroke="none" 
	d="
M696.302856,663.107666 
	C693.122925,663.224854 691.889343,661.963318 691.914062,659.218201 
	C691.979919,651.890747 692.001160,644.561951 691.934448,637.234680 
	C691.908203,634.354797 693.356201,633.459595 695.974548,633.502869 
	C701.136169,633.588257 706.301392,633.494141 711.461548,633.620850 
	C715.935181,633.730713 718.647461,635.597778 718.457031,640.643921 
	C718.262512,645.798340 718.541687,650.968872 718.455994,656.129761 
	C718.359375,661.943604 717.266541,662.970642 711.262939,663.071167 
	C706.434326,663.151978 701.603577,663.098755 696.302856,663.107666 
z"/>
<path fill="#0C0C0C" opacity="1.000000" stroke="none" 
	d="
M383.880615,644.378113 
	C383.883545,655.987000 383.903595,667.137085 383.883392,678.286987 
	C383.864563,688.675903 382.202087,690.285095 371.566406,690.311829 
	C366.573944,690.324341 361.580597,690.257874 356.589294,690.334595 
	C353.605286,690.380432 352.014679,689.515503 352.043945,686.073608 
	C352.181091,669.932129 352.164856,653.788757 352.091644,637.646545 
	C352.077637,634.559753 353.493652,633.496277 356.322876,633.520752 
	C361.980743,633.569763 367.639740,633.510254 373.297211,633.580078 
	C381.489532,633.681152 383.442108,635.623169 383.880615,644.378113 
z"/>
<path fill="#0C0C0C" opacity="1.000000" stroke="none" 
	d="
M973.454712,660.429565 
	C974.613708,664.442078 975.648987,668.072021 976.902649,672.467651 
	C969.487183,672.467651 962.569092,672.467651 954.696716,672.467651 
	C958.128113,660.692383 961.426086,649.374878 964.723999,638.057373 
	C965.381226,637.969421 966.038452,637.881531 966.695740,637.793579 
	C968.907471,645.211365 971.119263,652.629211 973.454712,660.429565 
z"/>
<path fill="#E7E7E7" opacity="1.000000" stroke="none" 
	d="
M635.800415,693.289795 
	C643.485229,692.879761 650.745972,692.227722 658.020508,691.975647 
	C659.739197,691.916077 662.512146,692.757568 663.041382,693.959106 
	C664.191040,696.569092 663.466309,698.893677 659.808044,699.741760 
	C650.574768,701.882202 641.424438,702.138916 632.171204,700.002502 
	C624.039551,698.125000 620.279175,692.055908 618.851257,684.835388 
	C615.859131,669.705444 616.169128,654.412292 618.858582,639.233215 
	C620.522095,629.844604 626.679688,624.002197 637.200317,623.089233 
	C644.234131,622.478760 651.427063,623.532898 658.534668,624.038940 
	C660.793152,624.199707 662.674255,624.979553 661.923706,628.196228 
	C661.261353,631.035339 660.392090,632.689270 657.027161,632.243286 
	C651.276123,631.481018 645.485291,630.617126 639.706055,630.579102 
	C633.613953,630.538940 628.079651,631.915710 627.928040,640.832214 
	C627.661987,656.471130 627.490051,672.114929 627.586670,687.754761 
	C627.616211,692.542480 632.185059,692.206726 635.800415,693.289795 
z"/>
<path fill="#E7E7E7" opacity="1.000000" stroke="none" 
	d="
M505.679932,699.101440 
	C502.759216,699.717224 499.934814,700.339722 497.235229,699.992249 
	C495.921661,699.823181 494.242920,698.052612 493.748260,696.648193 
	C488.948364,683.020691 489.010040,682.998962 474.491150,682.999512 
	C460.160919,683.000061 460.160858,683.000061 455.680695,696.423096 
	C454.544708,699.826599 446.270386,702.106750 444.069550,699.458496 
	C443.444305,698.706177 443.594208,696.950378 443.928223,695.813171 
	C450.540924,673.300232 457.283386,650.825378 463.853088,628.300049 
	C464.800476,625.051697 466.448425,623.779053 469.815521,623.665955 
	C483.652405,623.201355 483.681091,623.109558 487.603790,636.450806 
	C493.703430,657.196167 499.755402,677.955505 505.679932,699.101440 
M468.806854,654.039612 
	C467.335510,658.985413 465.729370,663.897827 464.490845,668.901306 
	C464.193939,670.100830 465.074799,672.774902 465.489746,672.790710 
	C472.021545,673.040405 478.565704,672.965942 485.982361,672.965942 
	C482.231537,660.371948 478.829407,648.948730 475.427277,637.525513 
	C474.834564,637.570129 474.241852,637.614807 473.649139,637.659424 
	C472.107086,642.859375 470.565033,648.059265 468.806854,654.039612 
z"/>
<path fill="#0C0C0C" opacity="1.000000" stroke="none" 
	d="
M468.914917,653.649414 
	C470.565033,648.059265 472.107086,642.859375 473.649139,637.659424 
	C474.241852,637.614807 474.834564,637.570129 475.427277,637.525513 
	C478.829407,648.948730 482.231537,660.371948 485.982361,672.965942 
	C478.565704,672.965942 472.021545,673.040405 465.489746,672.790710 
	C465.074799,672.774902 464.193939,670.100830 464.490845,668.901306 
	C465.729370,663.897827 467.335510,658.985413 468.914917,653.649414 
z"/>
</svg>